<?xml version="1.0" standalone="no"?>
<!DOCTYPE svg PUBLIC "-//W3C//DTD SVG 20010904//EN"
 "http://www.w3.org/TR/2001/REC-SVG-20010904/DTD/svg10.dtd">
<svg version="1.0" xmlns="http://www.w3.org/2000/svg"
 width="512.000000pt" height="512.000000pt" viewBox="0 0 512.000000 512.000000"
 preserveAspectRatio="xMidYMid meet">
<metadata>
Created by potrace 1.16, written by Peter Selinger 2001-2019
</metadata>
<g transform="translate(0.000000,512.000000) scale(0.100000,-0.100000)"
fill="#000000" stroke="none">
<path d="M2159 4237 c-48 -31 -79 -98 -79 -168 0 -62 22 -105 73 -143 l28 -21
1252 -3 c1177 -2 1254 -1 1287 15 53 28 80 75 80 144 0 69 -12 104 -48 143
-56 59 17 56 -1325 56 l-1234 0 -34 -23z"/>
<path d="M460 3728 c-53 -28 -80 -75 -80 -139 0 -57 26 -94 84 -120 39 -18 94
-19 1241 -19 1164 0 1201 1 1243 20 68 31 92 64 92 125 0 63 -28 111 -80 137
-33 17 -113 18 -1245 18 l-1211 0 -44 -22z"/>
<path d="M3200 3705 c0 -9 54 -190 119 -403 66 -213 127 -420 135 -461 19 -91
48 -140 123 -212 183 -175 440 -183 603 -20 49 49 100 137 100 173 0 9 5 20
10 23 6 3 10 0 10 -7 0 -7 13 -40 29 -73 102 -216 332 -293 551 -184 127 64
200 173 208 310 4 77 3 82 -36 162 -22 45 -86 223 -143 395 l-104 312 -802 0
c-718 0 -803 -2 -803 -15z"/>
<path d="M156 2948 c-70 -194 -134 -369 -143 -390 -12 -28 -14 -64 -11 -155 3
-105 7 -124 32 -171 78 -151 237 -230 443 -220 175 8 300 99 369 265 13 32 24
49 24 38 0 -38 59 -145 105 -190 25 -26 76 -61 113 -78 64 -30 73 -32 187 -32
113 0 124 2 185 31 36 17 83 46 105 65 49 43 113 141 121 187 l7 35 22 -61
c37 -103 102 -174 205 -225 62 -31 69 -32 190 -32 117 0 129 2 182 28 103 50
179 133 218 233 l17 46 18 -49 c35 -92 111 -180 192 -221 102 -52 284 -56 386
-9 75 34 166 121 203 194 27 54 29 67 32 191 3 105 1 137 -11 150 -8 10 -72
176 -142 370 l-128 352 -1397 0 -1397 0 -127 -352z"/>
<path d="M4540 1860 l0 -350 -590 0 -590 0 0 -195 0 -195 698 0 699 0 40 29
c75 54 73 40 73 580 l0 481 -165 0 -165 0 0 -350z"/>
<path d="M320 1214 c0 -452 0 -457 22 -496 12 -21 37 -48 54 -59 31 -19 55
-19 1305 -17 l1274 3 34 24 c18 13 42 42 52 65 17 38 19 74 19 489 l0 447
-180 0 -180 0 0 -290 0 -290 -1040 0 -1040 0 0 290 0 290 -160 0 -160 0 0
-456z"/>
</g>
</svg>
